<svg 
 xmlns="http://www.w3.org/2000/svg"
 xmlns:xlink="http://www.w3.org/1999/xlink"
 width="13px" height="13px">
<path fill-rule="evenodd"  fill="rgb(215, 215, 215)"
 d="M12.278,12.010 C11.932,12.356 11.510,12.719 10.958,12.166 L7.134,8.342 C5.406,9.384 3.135,9.173 1.644,7.683 C-0.110,5.928 -0.110,3.084 1.644,1.330 C3.399,-0.424 6.243,-0.424 7.997,1.330 C9.495,2.828 9.702,5.115 8.643,6.845 L12.461,10.663 C13.013,11.215 12.623,11.664 12.278,12.010 ZM6.889,2.391 C5.738,1.241 3.873,1.241 2.722,2.391 C1.572,3.541 1.572,5.407 2.722,6.557 C3.873,7.708 5.738,7.708 6.889,6.557 C8.039,5.407 8.039,3.541 6.889,2.391 Z"/>
</svg>